<svg width="48" height="48" viewBox="0 0 48 48" fill="none" xmlns="http://www.w3.org/2000/svg">
<rect width="48" height="48" fill="#323238"/>
<path d="M36 26.3263V36H30.6405V26.9746C30.6405 24.7084 29.8667 23.1608 27.9262 23.1608C26.4453 23.1608 25.5656 24.2027 25.1771 25.2116C25.036 25.5721 24.9996 26.0728 24.9996 26.5785V35.9996H19.6398C19.6398 35.9996 19.7117 20.7135 19.6398 19.1312H25V21.5216C24.9893 21.5404 24.9741 21.5588 24.9645 21.5768H25V21.5216C25.7123 20.3747 26.9825 18.7351 29.8303 18.7351C33.3564 18.7351 36 21.146 36 26.3263ZM14.0329 11C12.1995 11 11 12.2594 11 13.9141C11 15.5336 12.1647 16.8294 13.9625 16.8294H13.9973C15.8667 16.8294 17.029 15.5336 17.029 13.9141C16.9934 12.2594 15.8667 11 14.0329 11ZM11.3186 36H16.6764V19.1312H11.3186V36Z" fill="#F1F2F2"/>
</svg>
